<svg xmlns="http://www.w3.org/2000/svg" width="380" height="229.648" viewBox="0 0 380 229.648">
  <path id="Path_59" data-name="Path 59" d="M474.717,1188.192a70.032,70.032,0,0,1-15.438-138.269,47.643,47.643,0,0,1,71.216-49.481,106.05,106.05,0,0,1,189.241,47.887,70.011,70.011,0,0,1-4.054,139.858Zm31.408-174.438a27.642,27.642,0,0,0-27.61,27.61,27.291,27.291,0,0,0,2.93,12.374,10,10,0,0,1-8.54,14.484,50.007,50.007,0,0,0,1.878,99.97l240.8,0a50.011,50.011,0,0,0-.6-100.019c-1.027,0-2.145.044-3.515.14a10,10,0,0,1-10.673-9.336,86.034,86.034,0,0,0-159.453-38.943A10,10,0,0,1,525.7,1021.9,27.424,27.424,0,0,0,506.125,1013.754Z" transform="translate(-405 -958.544)" fill="#fff"/>
</svg>
