<svg xmlns="http://www.w3.org/2000/svg" xmlns:xlink="http://www.w3.org/1999/xlink" width="380" height="314.462" viewBox="0 0 380 314.462">
  <defs>
    <clipPath id="clip-path">
      <rect width="380" height="314.462" fill="none"/>
    </clipPath>
  </defs>
  <g id="Repeat_Grid_1" data-name="Repeat Grid 1" clip-path="url(#clip-path)">
    <g transform="translate(-935 -2124.538)">
      <path id="Path_66" data-name="Path 66" d="M1245.58,2354.091l-10.584,0h0L1004.717,2354a69.926,69.926,0,0,1-15.438-138.078,47.645,47.645,0,0,1,71.216-49.483,106.049,106.049,0,0,1,189.239,47.866,69.973,69.973,0,0,1-4.052,139.785Zm-10.577-20,10.532,0a49.974,49.974,0,0,0-.552-99.945c-1.185,0-2.441.076-3.515.15a10,10,0,0,1-10.673-9.335,86.033,86.033,0,0,0-159.453-38.934,10,10,0,0,1-15.641,1.867,27.609,27.609,0,0,0-44.257,31.843,10,10,0,0,1-8.539,14.485,49.909,49.909,0,0,0,1.812,99.778H1015Z" fill="#fff"/>
      <path id="Path_67" data-name="Path 67" d="M1222.625,2439h-.007l-56.375-.024a9.988,9.988,0,1,1,.007-19.976h.007l56.375.032a9.984,9.984,0,1,1-.007,19.968Z" fill="#fff"/>
      <path id="Path_68" data-name="Path 68" d="M1127.25,2439h0l-99.416-.024a9.988,9.988,0,1,1,0-19.976h0l99.416.032a9.984,9.984,0,1,1,0,19.968Z" fill="#fff"/>
      <path id="Path_69" data-name="Path 69" d="M1245.875,2397h0l-129.541-.024a9.988,9.988,0,1,1,0-19.976h0l129.541.032a9.984,9.984,0,1,1,0,19.968Z" fill="#fff"/>
      <path id="Path_70" data-name="Path 70" d="M1078.875,2397h-.005l-71.541-.024a9.988,9.988,0,1,1,.005-19.976h.005l71.541.032a9.984,9.984,0,1,1-.005,19.968Z" fill="#fff"/>
    </g>
  </g>
</svg>
