<svg xmlns="http://www.w3.org/2000/svg" xmlns:xlink="http://www.w3.org/1999/xlink" width="459.75" height="420" viewBox="0 0 459.75 420">
  <defs>
    <clipPath id="clip-path">
      <rect width="459.75" height="420" fill="none"/>
    </clipPath>
  </defs>
  <g id="Repeat_Grid_1" data-name="Repeat Grid 1" clip-path="url(#clip-path)">
    <g transform="translate(-134.25 -120)">
      <path id="Path_1" data-name="Path 1" d="M1762.8,1124a10,10,0,0,1-6.31-17.763,80,80,0,1,0-129.892-71.128,10,10,0,1,1-19.876-2.219,100,100,0,1,1,162.376,88.873A9.96,9.96,0,0,1,1762.8,1124Z" transform="translate(-1302 -734)" fill="#fff"/>
      <path id="Path_2" data-name="Path 2" d="M1706,928a10,10,0,0,1-10-10V864a10,10,0,0,1,20,0v54A10,10,0,0,1,1706,928Z" transform="translate(-1302 -734)" fill="#fff"/>
      <path id="Path_3" data-name="Path 3" d="M1580,1054h-54a10,10,0,0,1,0-20h54a10,10,0,0,1,0,20Z" transform="translate(-1302 -734)" fill="#fff"/>
      <path id="Path_4" data-name="Path 4" d="M1886,1054h-54a10,10,0,0,1,0-20h54a10,10,0,0,1,0,20Z" transform="translate(-1302 -734)" fill="#fff"/>
      <path id="Path_5" data-name="Path 5" d="M1794.542,965.458a10,10,0,0,1-7.071-17.071l38.737-38.738a10,10,0,0,1,14.143,14.143l-38.738,38.737A9.966,9.966,0,0,1,1794.542,965.458Z" transform="translate(-1302 -734)" fill="#fff"/>
      <path id="Path_6" data-name="Path 6" d="M1617.458,965.458a9.967,9.967,0,0,1-7.071-2.929l-38.738-38.737a10,10,0,0,1,14.143-14.143l38.737,38.738a10,10,0,0,1-7.071,17.071Z" transform="translate(-1302 -734)" fill="#fff"/>
      <path id="Path_7" data-name="Path 7" d="M1833.279,1181.279a9.971,9.971,0,0,1-7.071-2.928l-38.737-38.738a10,10,0,0,1,14.142-14.142l38.738,38.737a10,10,0,0,1-7.072,17.071Z" transform="translate(-1302 -734)" fill="#fff"/>
      <path id="Path_8" data-name="Path 8" d="M1505.967,1274a70.032,70.032,0,0,1-15.438-138.269,47.643,47.643,0,0,1,71.216-49.481,106.05,106.05,0,0,1,189.241,47.886,70.012,70.012,0,0,1-4.054,139.859Zm31.408-174.438a27.641,27.641,0,0,0-27.61,27.61,27.3,27.3,0,0,0,2.93,12.374,10,10,0,0,1-8.54,14.484,50.007,50.007,0,0,0,1.878,99.97l240.8-.005a50.011,50.011,0,0,0-.6-100.018c-1.027,0-2.144.044-3.514.139a10,10,0,0,1-10.673-9.336,86.034,86.034,0,0,0-159.454-38.942,10,10,0,0,1-15.641,1.866A27.42,27.42,0,0,0,1537.375,1099.562Z" transform="translate(-1302 -734)" fill="#fff"/>
    </g>
  </g>
</svg>
