<svg xmlns="http://www.w3.org/2000/svg" xmlns:xlink="http://www.w3.org/1999/xlink" width="443.705" height="361.902" viewBox="0 0 443.705 361.902">
  <defs>
    <clipPath id="clip-path">
      <rect width="443.705" height="361.902" fill="none"/>
    </clipPath>
  </defs>
  <g id="Repeat_Grid_1" data-name="Repeat Grid 1" clip-path="url(#clip-path)">
    <g transform="translate(-142.25 -149.098)">
      <path id="Path_1" data-name="Path 1" d="M2076.967,1252a70.032,70.032,0,0,1-15.438-138.269,47.668,47.668,0,0,1,46.846-56.169,47.29,47.29,0,0,1,24.37,6.688,106.05,106.05,0,0,1,189.241,47.886,70.012,70.012,0,0,1-4.054,139.859Zm31.408-174.438a27.64,27.64,0,0,0-27.61,27.61,27.309,27.309,0,0,0,2.93,12.374,10,10,0,0,1-8.54,14.484,50.007,50.007,0,0,0,1.877,99.97l240.8-.005a50.011,50.011,0,0,0-.6-100.018c-1.027,0-2.144.044-3.514.139a10,10,0,0,1-10.673-9.336,86.035,86.035,0,0,0-159.455-38.942,10,10,0,0,1-15.641,1.866A27.418,27.418,0,0,0,2108.375,1077.562Z" transform="translate(-1865 -741)" fill="#fff"/>
      <path id="Path_2" data-name="Path 2" d="M2376.24,1127.167a10,10,0,0,1-2.286-19.735,99.7,99.7,0,0,0,48.086-27.038,120.083,120.083,0,0,1-79.726-169.932,100.015,100.015,0,0,0-91.363,96.815,10,10,0,1,1-19.992-.553A120,120,0,0,1,2350.912,890.1c3.206,0,6.49.133,9.759.4a10,10,0,0,1,7.379,15.719,100.006,100.006,0,0,0,73.709,157.107,10,10,0,0,1,7.377,15.72,119.91,119.91,0,0,1-70.592,47.857A10.03,10.03,0,0,1,2376.24,1127.167Z" transform="translate(-1865 -741)" fill="#fff"/>
    </g>
  </g>
</svg>
