<svg xmlns="http://www.w3.org/2000/svg" xmlns:xlink="http://www.w3.org/1999/xlink" width="380" height="336.401" viewBox="0 0 380 336.401">
  <defs>
    <clipPath id="clip-path">
      <rect width="380" height="336.401" fill="none"/>
    </clipPath>
  </defs>
  <g id="Repeat_Grid_1" data-name="Repeat Grid 1" clip-path="url(#clip-path)">
    <g transform="translate(-174 -162.538)">
      <path id="Path_1" data-name="Path 1" d="M1245.58,1764.091l-10.584,0h0L1004.717,1764a69.926,69.926,0,0,1-15.438-138.079,47.669,47.669,0,0,1,46.846-56.169,47.308,47.308,0,0,1,24.37,6.687,106.049,106.049,0,0,1,189.239,47.865,69.974,69.974,0,0,1-4.052,139.786Zm-10.577-20,10.532,0a49.974,49.974,0,0,0-.552-99.946c-1.178,0-2.438.077-3.515.151a10,10,0,0,1-10.673-9.336,86.033,86.033,0,0,0-159.453-38.933,10,10,0,0,1-15.641,1.867,27.608,27.608,0,0,0-44.256,31.844,10,10,0,0,1-8.54,14.484,49.909,49.909,0,0,0,1.812,99.778H1015Z" transform="translate(-761 -1372)" fill="#fff"/>
      <path id="Path_2" data-name="Path 2" d="M1089.958,1870.939a10,10,0,0,1-7.067-17.074l25.042-25.016A10,10,0,1,1,1122.067,1843l-25.042,25.017A9.969,9.969,0,0,1,1089.958,1870.939Z" transform="translate(-761 -1372)" fill="#fff"/>
      <path id="Path_3" data-name="Path 3" d="M1002.958,1813.939a10,10,0,0,1-7.067-17.074l15.792-15.776a10,10,0,1,1,14.134,14.148l-15.792,15.777A9.968,9.968,0,0,1,1002.958,1813.939Z" transform="translate(-761 -1372)" fill="#fff"/>
      <path id="Path_4" data-name="Path 4" d="M1141.958,1813.939a10,10,0,0,1-7.067-17.074l15.792-15.776a10,10,0,1,1,14.134,14.148l-15.792,15.777A9.968,9.968,0,0,1,1141.958,1813.939Z" transform="translate(-761 -1372)" fill="#fff"/>
      <path id="Path_5" data-name="Path 5" d="M1186.958,1839.1a10,10,0,0,1-7.066-17.076l40.992-40.939a10,10,0,1,1,14.133,14.15l-40.993,40.94A9.967,9.967,0,0,1,1186.958,1839.1Z" transform="translate(-761 -1372)" fill="#fff"/>
      <path id="Path_6" data-name="Path 6" d="M1035.958,1850.1a10,10,0,0,1-7.067-17.075l51.992-51.939a10,10,0,1,1,14.135,14.148l-51.993,51.94A9.97,9.97,0,0,1,1035.958,1850.1Z" transform="translate(-761 -1372)" fill="#fff"/>
    </g>
  </g>
</svg>
