<svg xmlns="http://www.w3.org/2000/svg" xmlns:xlink="http://www.w3.org/1999/xlink" width="380.249" height="347.401" viewBox="0 0 380.249 347.401">
  <defs>
    <clipPath id="clip-path">
      <rect width="380.249" height="347.401" fill="none"/>
    </clipPath>
  </defs>
  <g id="Repeat_Grid_1" data-name="Repeat Grid 1" clip-path="url(#clip-path)">
    <g transform="translate(-174.001 -156.538)">
      <path id="Path_1" data-name="Path 1" d="M519.71,2389.734a10,10,0,0,1-5.037-18.645l60.506-35.2a10,10,0,0,1,10.057,17.287l-60.507,35.2A9.943,9.943,0,0,1,519.71,2389.734Z" transform="translate(-231 -1968)" fill="#fff"/>
      <path id="Path_2" data-name="Path 2" d="M580.707,2388.83a9.96,9.96,0,0,1-4.761-1.213l-61.523-33.39a10,10,0,0,1,9.54-17.579l61.523,33.391a10,10,0,0,1-4.779,18.791Z" transform="translate(-231 -1968)" fill="#fff"/>
      <path id="Path_3" data-name="Path 3" d="M549.937,2407h-.005a10.2,10.2,0,0,1-9.995-10.232l.035-68.8a9.979,9.979,0,0,1,10-9.97h.005a9.88,9.88,0,0,1,9.995,9.866l-.035,68.981A10.137,10.137,0,0,1,549.937,2407Z" transform="translate(-231 -1968)" fill="#fff"/>
      <path id="Path_4" data-name="Path 4" d="M614.71,2355.734a10,10,0,0,1-5.037-18.645l60.506-35.2a10,10,0,0,1,10.057,17.287l-60.507,35.2A9.943,9.943,0,0,1,614.71,2355.734Z" transform="translate(-231 -1968)" fill="#fff"/>
      <path id="Path_5" data-name="Path 5" d="M675.707,2354.83a9.96,9.96,0,0,1-4.761-1.213l-61.523-33.39a10,10,0,0,1,9.54-17.579l61.523,33.391a10,10,0,0,1-4.779,18.791Z" transform="translate(-231 -1968)" fill="#fff"/>
      <path id="Path_6" data-name="Path 6" d="M644.937,2373h-.005a10.2,10.2,0,0,1-9.995-10.232l.035-68.8a9.979,9.979,0,0,1,10-9.97h.005a9.88,9.88,0,0,1,9.995,9.866l-.035,68.981A10.137,10.137,0,0,1,644.937,2373Z" transform="translate(-231 -1968)" fill="#fff"/>
      <path id="Path_7" data-name="Path 7" d="M532.958,2471.939a10,10,0,0,1-7.067-17.074l25.042-25.016A10,10,0,1,1,565.067,2444l-25.042,25.017A9.968,9.968,0,0,1,532.958,2471.939Z" transform="translate(-231 -1968)" fill="#fff"/>
      <path id="Path_8" data-name="Path 8" d="M483.958,2438.939a10,10,0,0,1-7.067-17.074l15.792-15.776a10,10,0,1,1,14.134,14.148l-15.792,15.777A9.967,9.967,0,0,1,483.958,2438.939Z" transform="translate(-231 -1968)" fill="#fff"/>
      <path id="Path_9" data-name="Path 9" d="M598.958,2423.939a10,10,0,0,1-7.067-17.074l15.792-15.776a10,10,0,1,1,14.134,14.148l-15.792,15.777A9.967,9.967,0,0,1,598.958,2423.939Z" transform="translate(-231 -1968)" fill="#fff"/>
      <path id="Path_10" data-name="Path 10" d="M639.958,2441.939a10,10,0,0,1-7.067-17.074l51.992-51.939a10,10,0,0,1,14.135,14.148l-51.993,51.94A9.968,9.968,0,0,1,639.958,2441.939Z" transform="translate(-231 -1968)" fill="#fff"/>
      <path id="Path_11" data-name="Path 11" d="M716.08,2354.091l-10.084,0a10,10,0,0,1,0-20h0l10.032,0a49.752,49.752,0,0,0,49.215-49.953,50.124,50.124,0,0,0-50.142-49.992c-1.261,0-2.646.085-3.578.15a10,10,0,0,1-10.672-9.335,86.065,86.065,0,0,0-159.5-38.934,10,10,0,0,1-15.64,1.867,27.615,27.615,0,0,0-44.271,31.843,10,10,0,0,1-8.539,14.485,49.909,49.909,0,0,0,1.81,99.778H487a10,10,0,0,1,0,20H474.717a69.926,69.926,0,0,1-15.435-138.079,47.673,47.673,0,0,1,46.851-56.168,47.323,47.323,0,0,1,24.377,6.686A106.083,106.083,0,0,1,719.795,2214.3a70.065,70.065,0,0,1,45.317,119.07,69.245,69.245,0,0,1-48.93,20.72Z" transform="translate(-231 -1968)" fill="#fff"/>
    </g>
  </g>
</svg>
