<svg xmlns="http://www.w3.org/2000/svg" xmlns:xlink="http://www.w3.org/1999/xlink" width="380" height="383.462" viewBox="0 0 380 383.462">
  <defs>
    <clipPath id="clip-path">
      <rect width="380" height="383.462" fill="none"/>
    </clipPath>
  </defs>
  <g id="Repeat_Grid_1" data-name="Repeat Grid 1" clip-path="url(#clip-path)">
    <g transform="translate(-174 -138.538)">
      <path id="Path_1" data-name="Path 1" d="M1785.579,1742.091l-10.584,0h0L1544.717,1742a69.926,69.926,0,0,1-15.438-138.079,47.668,47.668,0,0,1,46.846-56.169,47.308,47.308,0,0,1,24.37,6.687,106.049,106.049,0,0,1,189.239,47.865,69.974,69.974,0,0,1-4.052,139.786Zm-10.576-20,10.531,0a49.974,49.974,0,0,0-.551-99.946c-1.178,0-2.438.077-3.514.151a10,10,0,0,1-10.673-9.336,86.033,86.033,0,0,0-159.454-38.933,10,10,0,0,1-15.641,1.867,27.609,27.609,0,0,0-44.256,31.844,10,10,0,0,1-8.54,14.484,49.909,49.909,0,0,0,1.812,99.778H1555Z" transform="translate(-1301 -1374)" fill="#fff"/>
      <path id="Path_2" data-name="Path 2" d="M1569,1877.054a10,10,0,0,1-7.067-17.075l61.9-61.84a10,10,0,1,1,14.135,14.148l-61.9,61.841A9.97,9.97,0,0,1,1569,1877.054Z" transform="translate(-1301 -1374)" fill="#fff"/>
      <path id="Path_3" data-name="Path 3" d="M1630.875,1877.085a9.967,9.967,0,0,1-7.075-2.933l-61.841-61.9a10,10,0,0,1,14.149-14.135l61.841,61.9a10,10,0,0,1-7.074,17.067Z" transform="translate(-1301 -1374)" fill="#fff"/>
      <path id="Path_4" data-name="Path 4" d="M1649.954,1846h-.005l-100,.029a10.015,10.015,0,0,1,.005-20.029h.005l100,.1a9.948,9.948,0,1,1-.005,19.9Z" transform="translate(-1301 -1374)" fill="#fff"/>
      <path id="Path_5" data-name="Path 5" d="M1599.929,1896h-.005a9.942,9.942,0,0,1-9.995-9.938l.05-100.034a10.029,10.029,0,0,1,10-10.028h.005a10.055,10.055,0,0,1,9.995,10.071l-.05,99.967A9.972,9.972,0,0,1,1599.929,1896Z" transform="translate(-1301 -1374)" fill="#fff"/>
      <path id="Path_6" data-name="Path 6" d="M1707.711,1832.734a10,10,0,0,1-5.038-18.645l60.506-35.2a10,10,0,1,1,10.056,17.287l-60.506,35.2A9.944,9.944,0,0,1,1707.711,1832.734Z" transform="translate(-1301 -1374)" fill="#fff"/>
      <path id="Path_7" data-name="Path 7" d="M1768.707,1831.83a9.97,9.97,0,0,1-4.762-1.213l-61.523-33.39a10,10,0,1,1,9.541-17.579l61.523,33.391a10,10,0,0,1-4.779,18.791Z" transform="translate(-1301 -1374)" fill="#fff"/>
      <path id="Path_8" data-name="Path 8" d="M1737.937,1850h-.005a10.194,10.194,0,0,1-9.995-10.232l.035-68.8a9.978,9.978,0,0,1,10-9.97h.005a9.88,9.88,0,0,1,9.995,9.866l-.035,68.981A10.137,10.137,0,0,1,1737.937,1850Z" transform="translate(-1301 -1374)" fill="#fff"/>
    </g>
  </g>
</svg>
