<svg xmlns="http://www.w3.org/2000/svg" xmlns:xlink="http://www.w3.org/1999/xlink" width="350.374" height="246.858" viewBox="0 0 350.374 246.858">
  <defs>
    <clipPath id="clip-path">
      <rect width="350.374" height="246.858" fill="none"/>
    </clipPath>
  </defs>
  <g id="Repeat_Grid_1" data-name="Repeat Grid 1" clip-path="url(#clip-path)">
    <g transform="translate(-189.626 -206.965)">
      <path id="Path_1" data-name="Path 1" d="M2335,1712H2081.918c-19.672,0-36.292-16.939-36.292-36.989,0-20.4,16.254-36.99,36.232-36.99s36.2,16.485,36.2,36.747a10,10,0,0,1-20,0c0-9.078-7.42-16.747-16.2-16.747s-16.232,7.78-16.232,16.99,7.461,16.989,16.292,16.989H2335a10,10,0,0,1,0,20Z" transform="translate(-1856 -1370)" fill="#fff"/>
      <path id="Path_2" data-name="Path 2" d="M2386,1669H2181.138c-25.126,0-45.568-20.643-45.568-46.017s20.349-46.018,45.361-46.018c24.955,0,45.256,20.561,45.256,45.833a10,10,0,0,1-20,0c0-14.244-11.33-25.833-25.256-25.833-13.984,0-25.361,11.672-25.361,26.018,0,14.1,11.708,26.017,25.568,26.017H2386a10,10,0,0,1,0,20Z" transform="translate(-1856 -1370)" fill="#fff"/>
      <path id="Path_3" data-name="Path 3" d="M2114.364,1823.823a45.47,45.47,0,0,1-32.052-12.97,44.367,44.367,0,0,1-13.361-31.941c0-24.765,20.418-44.912,45.515-44.912H2364a10,10,0,0,1,0,20H2114.466c-14.308,0-25.515,10.942-25.515,24.912s11.163,24.911,25.413,24.911a24.962,24.962,0,0,0,25.363-25.095,10,10,0,0,1,20,0A45.281,45.281,0,0,1,2114.364,1823.823Z" transform="translate(-1856 -1370)" fill="#fff"/>
    </g>
  </g>
</svg>
